<svg width="256" height="256" viewBox="0 0 256 256" fill="none" xmlns="http://www.w3.org/2000/svg"><link xmlns="" type="text/css" id="dark-mode" rel="stylesheet" href=""/><link xmlns="" type="text/css" rel="stylesheet" id="dark-mode-custom-link"/><link xmlns="" type="text/css" rel="stylesheet" id="dark-mode-general-link"/><style xmlns="" type="text/css" id="dark-mode-custom-style"/><style xmlns="" lang="en" type="text/css" id="dark-mode-native-style"/><style xmlns="" lang="en" type="text/css" id="dark-mode-native-sheet"/>
<g id="Frame 1">
<rect width="256" height="256" fill="white"/>
<circle id="Ellipse 2" cx="40.5" cy="41.5" r="27" stroke="black" stroke-width="7"/>
<circle id="Ellipse 3" cx="40.5" cy="119.5" r="27" stroke="black" stroke-width="7"/>
<circle id="Ellipse 5" cx="130.5" cy="47.5" r="27" stroke="black" stroke-width="7"/>
<circle id="Ellipse 6" cx="130.5" cy="119.5" r="27" stroke="black" stroke-width="7"/>
<circle id="Ellipse 8" cx="221.5" cy="119.5" r="27" stroke="black" stroke-width="7"/>
<path id="Ellipse 7" d="M157.5 199C157.5 213.581 145.466 225.5 130.5 225.5C115.534 225.5 103.5 213.581 103.5 199C103.5 184.419 115.534 172.5 130.5 172.5C145.466 172.5 157.5 184.419 157.5 199Z" stroke="black" stroke-width="7"/>
<path id="Ellipse 4" d="M67.5 204.5C67.5 218.75 55.5226 230.5 40.5 230.5C25.4774 230.5 13.5 218.75 13.5 204.5C13.5 190.25 25.4774 178.5 40.5 178.5C55.5226 178.5 67.5 190.25 67.5 204.5Z" stroke="black" stroke-width="7"/>
<path id="Arrow 1" d="M100.914 46.4142C101.695 45.6332 101.695 44.3668 100.914 43.5858L88.1863 30.8579C87.4052 30.0768 86.1389 30.0768 85.3579 30.8579C84.5768 31.6389 84.5768 32.9052 85.3579 33.6863L96.6716 45L85.3579 56.3137C84.5768 57.0948 84.5768 58.3611 85.3579 59.1421C86.1389 59.9232 87.4052 59.9232 88.1863 59.1421L100.914 46.4142ZM65.5 47H99.5V43H65.5V47Z" fill="black"/>
<path id="Arrow 2" d="M101.414 123.414C102.195 122.633 102.195 121.367 101.414 120.586L88.6863 107.858C87.9052 107.077 86.6389 107.077 85.8579 107.858C85.0768 108.639 85.0768 109.905 85.8579 110.686L97.1716 122L85.8579 133.314C85.0768 134.095 85.0768 135.361 85.8579 136.142C86.6389 136.923 87.9052 136.923 88.6863 136.142L101.414 123.414ZM66 124H100V120H66V124Z" fill="black"/>
<path id="Arrow 3" d="M101.414 205.414C102.195 204.633 102.195 203.367 101.414 202.586L88.6863 189.858C87.9052 189.077 86.6389 189.077 85.8579 189.858C85.0768 190.639 85.0768 191.905 85.8579 192.686L97.1716 204L85.8579 215.314C85.0768 216.095 85.0768 217.361 85.8579 218.142C86.6389 218.923 87.9052 218.923 88.6863 218.142L101.414 205.414ZM66 206H100V202H66V206Z" fill="black"/>
<path id="Arrow 5" d="M109.961 140.608C109.745 139.525 108.691 138.822 107.608 139.039L89.9573 142.569C88.8742 142.786 88.1718 143.839 88.3884 144.922C88.605 146.005 89.6587 146.708 90.7418 146.491L106.431 143.353L109.569 159.043C109.786 160.126 110.839 160.828 111.922 160.612C113.005 160.395 113.708 159.341 113.491 158.258L109.961 140.608ZM67.6641 205.109L109.664 142.109L106.336 139.891L64.3359 202.891L67.6641 205.109Z" fill="black"/>
<path id="Arrow 6" d="M101.97 59.6524C101.778 58.5647 100.74 57.8385 99.6524 58.0304L81.9263 61.1586C80.8386 61.3505 80.1124 62.3879 80.3043 63.4757C80.4963 64.5635 81.5337 65.2897 82.6215 65.0977L98.378 62.3171L101.159 78.0737C101.351 79.1614 102.388 79.8876 103.476 79.6957C104.563 79.5037 105.29 78.4663 105.098 77.3785L101.97 59.6524ZM66.6385 111.147L101.638 61.1469L98.3615 58.8531L63.3615 108.853L66.6385 111.147Z" fill="black"/>
<path id="Arrow 9" d="M107.65 101.969C108.737 102.162 109.776 101.438 109.969 100.35L113.12 82.6279C113.313 81.5404 112.588 80.5021 111.501 80.3088C110.413 80.1154 109.375 80.8403 109.181 81.9278L106.381 97.6808L90.6279 94.8803C89.5404 94.6869 88.5021 95.4118 88.3088 96.4993C88.1154 97.5869 88.8403 98.6252 89.9278 98.8185L107.65 101.969ZM69.3601 48.1448L106.36 101.145L109.64 98.8552L72.6399 45.8552L69.3601 48.1448Z" fill="black"/>
<path id="Arrow 10" d="M102.65 188.969C103.737 189.162 104.776 188.438 104.969 187.35L108.12 169.628C108.313 168.54 107.588 167.502 106.501 167.309C105.413 167.115 104.375 167.84 104.181 168.928L101.381 184.681L85.6279 181.88C84.5404 181.687 83.5021 182.412 83.3088 183.499C83.1154 184.587 83.8403 185.625 84.9278 185.819L102.65 188.969ZM64.3601 135.145L101.36 188.145L104.64 185.855L67.6399 132.855L64.3601 135.145Z" fill="black"/>
<path id="Arrow 4" d="M201.981 140.728C201.831 139.634 200.822 138.868 199.728 139.019L181.895 141.466C180.801 141.616 180.036 142.625 180.186 143.72C180.336 144.814 181.345 145.579 182.439 145.429L198.291 143.253L200.466 159.105C200.616 160.199 201.625 160.964 202.72 160.814C203.814 160.664 204.579 159.655 204.429 158.561L201.981 140.728ZM157.593 200.209L201.593 142.209L198.407 139.791L154.407 197.791L157.593 200.209Z" fill="black"/>
<path id="Arrow 7" d="M192.414 120.414C193.195 119.633 193.195 118.367 192.414 117.586L179.686 104.858C178.905 104.077 177.639 104.077 176.858 104.858C176.077 105.639 176.077 106.905 176.858 107.686L188.172 119L176.858 130.314C176.077 131.095 176.077 132.361 176.858 133.142C177.639 133.923 178.905 133.923 179.686 133.142L192.414 120.414ZM161 121H191V117H161V121Z" fill="black"/>
<path id="Arrow 8" d="M199.975 98.9998C201.079 99.0138 201.986 98.1298 202 97.0253L202.228 79.0268C202.242 77.9223 201.358 77.0156 200.253 77.0016C199.149 76.9876 198.242 77.8716 198.228 78.9761L198.025 94.9748L182.027 94.7723C180.922 94.7584 180.016 95.6424 180.002 96.7469C179.988 97.8513 180.872 98.758 181.976 98.772L199.975 98.9998ZM159.568 58.3962L198.568 98.3962L201.432 95.6038L162.432 55.6038L159.568 58.3962Z" fill="black"/>
</g>
</svg>