<svg width="61" height="61" viewBox="0 0 61 61" fill="none" xmlns="http://www.w3.org/2000/svg">
<g clip-path="url(#clip0_350_26)">
<path d="M46.647 16.1322C40.0357 16.1322 32.8009 25.6151 30.4893 28.9063C28.156 25.5882 20.9446 16.1618 14.353 16.1618C6.43906 16.1618 0 22.6009 0 30.5148C0 38.4287 6.43906 44.8678 14.353 44.8678C20.9643 44.8678 28.1991 35.3849 30.5108 32.0937C32.844 35.4118 40.0555 44.8382 46.647 44.8382C54.5609 44.8382 61 38.3991 61 30.4852C61 22.5713 54.5609 16.1322 46.647 16.1322ZM14.353 43.0736C7.4277 43.0736 1.79416 37.4401 1.79416 30.5148C1.79416 23.5895 7.4277 17.956 14.353 17.956C20.4431 17.956 27.791 28.1439 29.4191 30.5148C27.791 32.8857 20.4431 43.0736 14.353 43.0736ZM46.647 43.044C40.5569 43.044 33.2091 32.8561 31.5809 30.4852C33.2082 28.1143 40.5568 17.9264 46.647 17.9264C53.5723 17.9264 59.2058 23.5599 59.2058 30.4852C59.2058 37.4105 53.5723 43.044 46.647 43.044Z" fill="#010002"/>
</g>
<defs>
<clipPath id="clip0_350_26">
<rect width="61" height="61" fill="white"/>
</clipPath>
</defs>
</svg>
